# xmcd
#
# Track frame offsets:
#	150
#	11571
#	27922
#	43801
#	60391
#	73734
#	88443
#	103634
#	116844
#	133540
#	148120
#	163195
#
# Disc length: 2393 seconds
#
# Revision: 1
# Processed by: cddbd v1.5.2PL0 Copyright (c) Steve Scherf et al.
# Submitted via: audiograbber 1.83.01
#
DISCID=af09570c
DTITLE=Various Artist - CDX 652
DYEAR=2017
DGENRE=Country
TTITLE0=Dylan Scott - Hooked
TTITLE1=Zac Brown Band - Roots
TTITLE2=Kelsea Ballerini - Legends
TTITLE3=Dugger Band - East Tennessee Son 
TTITLE4=Amy Jack - Got Lonely Too Early
TTITLE5=Darren Taylor - Hillbilly Way
TTITLE6=Terry McBride - Hotels and Highways
TTITLE7=Kamber Cain - Love Story That I've Already Read
TTITLE8=Tony Jackson - Old Porch Swing
TTITLE9=Cody Joe Hodges - Roll That Way
TTITLE10=Lyman Ellerman - The Addict
TTITLE11=Ryan Trotti - Too Much Of A Good Thang
EXTD=
EXTT0=
EXTT1=
EXTT2=
EXTT3=
EXTT4=
EXTT5=
EXTT6=
EXTT7=
EXTT8=
EXTT9=
EXTT10=
EXTT11=
PLAYORDER=
